<svg xmlns="http://www.w3.org/2000/svg" width="158" height="31" viewBox="0 0 158 31" version="1.1"><g stroke="none" stroke-width="1" fill="none" fill-rule="evenodd"><g transform="translate(1.000000, 1.000000)"><path d="M153.84 17.37L155.56 18.28C154.99 19.4 154.33 20.27 153.59 20.96 152.85 21.64 152 22.16 151.07 22.52 150.14 22.87 149.08 23.04 147.9 23.04 145.27 23.04 143.25 22.19 141.77 20.46 140.29 18.77 139.56 16.83 139.56 14.69 139.56 12.67 140.18 10.86 141.44 9.27 143.03 7.25 145.14 6.27 147.79 6.27 150.53 6.27 152.72 7.3 154.36 9.36 155.51 10.81 156.11 12.64 156.13 14.8L141.69 14.8C141.72 16.66 142.32 18.17 143.47 19.34 144.62 20.52 146.04 21.12 147.74 21.12 148.56 21.12 149.35 20.98 150.12 20.71 150.88 20.44 151.54 20.05 152.09 19.59 152.63 19.15 153.21 18.38 153.84 17.37L153.84 17.37 153.84 17.37ZM153.86 13.05C153.59 11.96 153.18 11.08 152.66 10.42 152.14 9.77 151.43 9.25 150.55 8.84 149.68 8.43 148.78 8.23 147.82 8.23 146.23 8.23 144.89 8.73 143.74 9.74 142.92 10.48 142.29 11.57 141.85 13.05L153.86 13.05 153.86 13.05Z" stroke="#79A2C0" fill="#79A2C0"/><path d="M135.12 6.68L137.18 6.68 137.18 19.4C137.18 21.64 136.98 23.28 136.6 24.32 136.05 25.8 135.12 26.92 133.78 27.71 132.44 28.51 130.86 28.89 129 28.89 127.63 28.89 126.4 28.7 125.3 28.32 124.21 27.93 123.33 27.41 122.65 26.76 121.96 26.1 121.33 25.14 120.76 23.88L122.98 23.88C123.58 24.95 124.37 25.74 125.33 26.24 126.29 26.76 127.49 27 128.91 27 130.31 27 131.51 26.73 132.47 26.24 133.43 25.72 134.14 25.06 134.55 24.27 134.96 23.47 135.18 22.22 135.18 20.44L135.18 19.62C134.41 20.6 133.45 21.34 132.33 21.86 131.21 22.38 130.03 22.65 128.78 22.65 127.3 22.65 125.93 22.3 124.62 21.56 123.33 20.82 122.32 19.83 121.61 18.63 120.9 17.4 120.54 16.03 120.54 14.55 120.54 13.08 120.9 11.71 121.64 10.42 122.37 9.14 123.39 8.13 124.7 7.39 126.01 6.65 127.38 6.27 128.8 6.27 130.01 6.27 131.13 6.51 132.14 7 133.18 7.5 134.17 8.32 135.12 9.44L135.12 6.68 135.12 6.68 135.12 6.68ZM129.05 8.26C127.87 8.26 126.81 8.54 125.79 9.11 124.81 9.68 124.02 10.45 123.44 11.44 122.87 12.42 122.59 13.52 122.59 14.66 122.59 16.42 123.17 17.87 124.34 19.01 125.52 20.16 127.05 20.74 128.91 20.74 130.8 20.74 132.33 20.16 133.48 19.04 134.63 17.89 135.21 16.42 135.21 14.55 135.21 13.35 134.93 12.28 134.41 11.33 133.89 10.4 133.13 9.63 132.17 9.08 131.21 8.54 130.17 8.26 129.05 8.26L129.05 8.26 129.05 8.26Z" stroke="#79A2C0" fill="#79A2C0"/><path d="M117.86 1.37L117.86 22.68 115.81 22.68 115.81 19.92C114.93 20.96 113.98 21.75 112.91 22.27 111.84 22.79 110.67 23.06 109.41 23.06 107.14 23.06 105.22 22.24 103.61 20.6 101.99 18.96 101.2 16.96 101.2 14.64 101.2 12.34 102.02 10.37 103.63 8.75 105.25 7.11 107.19 6.29 109.46 6.29 110.77 6.29 111.95 6.57 113.02 7.14 114.08 7.69 115.02 8.54 115.81 9.66L115.81 0C116.49 0.03 117.18 1.31 117.86 1.37L117.86 1.37 117.86 1.37ZM109.63 8.26C108.48 8.26 107.41 8.54 106.45 9.11 105.49 9.66 104.73 10.45 104.15 11.46 103.58 12.48 103.31 13.54 103.31 14.69 103.31 15.81 103.58 16.88 104.18 17.92 104.76 18.93 105.52 19.75 106.51 20.3 107.49 20.87 108.53 21.15 109.63 21.15 110.75 21.15 111.81 20.87 112.83 20.3 113.84 19.73 114.6 18.96 115.15 18 115.7 17.04 115.97 15.95 115.97 14.75 115.97 12.91 115.37 11.35 114.14 10.12 112.91 8.89 111.4 8.26 109.63 8.26L109.63 8.26 109.63 8.26Z" stroke="#79A2C0" fill="#79A2C0"/><path d="M97.53 6.68L99.58 6.68 99.58 22.65 97.53 22.65 97.53 6.68 97.53 6.68 97.53 6.68ZM97.53 1.23L99.58 1.23 99.58 3.09C98.41 3.04 98.22 3.28 97.53 3.64L97.53 1.23 97.53 1.23 97.53 1.23Z" stroke="#79A2C0" fill="#79A2C0"/><path d="M88.5 6.68L90.61 6.68 90.61 9C91.24 8.07 91.9 7.39 92.61 6.95 93.32 6.51 94.03 6.27 94.8 6.27 95.37 6.27 95.97 6.46 96.63 6.81L95.56 8.54C95.13 8.34 94.77 8.26 94.47 8.26 93.78 8.26 93.13 8.54 92.47 9.11 91.84 9.68 91.35 10.56 91.02 11.74 90.78 12.64 90.64 14.5 90.64 17.26L90.64 22.68 88.53 22.68 88.53 6.68 88.5 6.68 88.5 6.68Z" stroke="#79A2C0" fill="#79A2C0"/><path d="M70.12 22.65L70.12 1.34C70.8 1.2 71.49 0.14 72.17 0L72.17 9.44C73.05 8.37 74 7.58 75.07 7.06 76.14 6.54 77.32 6.27 78.57 6.27 80.84 6.27 82.76 7.09 84.37 8.73 85.99 10.37 86.78 12.34 86.78 14.69 86.78 16.99 85.96 18.96 84.35 20.6 82.73 22.24 80.79 23.06 78.52 23.06 77.21 23.06 76.03 22.79 74.96 22.24 73.9 21.7 72.97 20.85 72.14 19.73L72.14 22.65 70.12 22.65 70.12 22.65 70.12 22.65ZM78.35 21.07C79.5 21.07 80.54 20.79 81.53 20.22 82.49 19.64 83.25 18.88 83.83 17.87 84.4 16.85 84.67 15.79 84.67 14.66 84.67 13.54 84.4 12.45 83.8 11.44 83.22 10.42 82.46 9.63 81.47 9.06 80.49 8.48 79.45 8.21 78.35 8.21 77.23 8.21 76.17 8.48 75.15 9.06 74.14 9.63 73.38 10.4 72.83 11.35 72.28 12.31 72.01 13.41 72.01 14.61 72.01 16.44 72.61 18 73.84 19.23 75.07 20.44 76.58 21.07 78.35 21.07L78.35 21.07 78.35 21.07Z" stroke="#79A2C0" fill="#79A2C0"/><path d="M65.11 17.37L66.84 18.28C66.26 19.4 65.61 20.27 64.87 20.96 64.13 21.64 63.28 22.16 62.35 22.52 61.42 22.87 60.35 23.04 59.18 23.04 56.55 23.04 54.53 22.19 53.05 20.46 51.57 18.77 50.83 16.83 50.83 14.69 50.83 12.67 51.46 10.86 52.72 9.27 54.31 7.25 56.41 6.27 59.07 6.27 61.8 6.27 63.99 7.3 65.63 9.36 66.78 10.81 67.38 12.64 67.41 14.8L52.97 14.8C52.99 16.66 53.6 18.17 54.74 19.34 55.89 20.52 57.32 21.12 59.01 21.12 59.83 21.12 60.63 20.98 61.39 20.71 62.16 20.44 62.82 20.05 63.36 19.59 63.91 19.15 64.48 18.38 65.11 17.37L65.11 17.37 65.11 17.37ZM65.14 13.05C64.87 11.96 64.46 11.08 63.94 10.42 63.42 9.77 62.71 9.25 61.83 8.84 60.95 8.43 60.05 8.23 59.09 8.23 57.51 8.23 56.17 8.73 55.02 9.74 54.2 10.48 53.57 11.57 53.13 13.05L65.14 13.05 65.14 13.05Z" stroke="#325772" fill="#325772"/><path d="M49.22 8.4L47.9 9.77C46.81 8.7 45.72 8.18 44.68 8.18 44.02 8.18 43.45 8.4 42.95 8.84 42.49 9.27 42.24 9.79 42.24 10.37 42.24 10.89 42.43 11.38 42.82 11.85 43.2 12.34 44.05 12.89 45.28 13.54 46.81 14.34 47.85 15.1 48.4 15.84 48.94 16.58 49.22 17.43 49.22 18.36 49.22 19.67 48.75 20.79 47.82 21.7 46.89 22.6 45.74 23.06 44.35 23.06 43.42 23.06 42.54 22.87 41.69 22.46 40.85 22.05 40.16 21.5 39.62 20.79L40.9 19.32C41.94 20.49 43.06 21.09 44.24 21.09 45.06 21.09 45.77 20.82 46.35 20.3 46.92 19.78 47.22 19.15 47.22 18.44 47.22 17.87 47.03 17.32 46.65 16.88 46.26 16.42 45.39 15.87 44.05 15.18 42.6 14.45 41.61 13.71 41.09 13 40.57 12.28 40.3 11.44 40.3 10.53 40.3 9.33 40.71 8.32 41.53 7.52 42.35 6.73 43.42 6.32 44.68 6.32 46.24 6.27 47.74 6.98 49.22 8.4L49.22 8.4 49.22 8.4Z" stroke="#325772" fill="#325772"/><path d="M38.11 0L38.11 22.65 36.06 22.65 36.06 1.34C36.72 0.88 37.51 0.68 38.11 0L38.11 0 38.11 0Z" stroke="#325772" fill="#325772"/><path d="M19.01 6.68L21.07 6.68 21.07 14.14C21.07 15.98 21.18 17.21 21.37 17.89 21.67 18.88 22.22 19.64 23.06 20.22 23.88 20.79 24.9 21.07 26.05 21.07 27.19 21.07 28.18 20.79 28.97 20.25 29.77 19.7 30.34 18.96 30.64 18.06 30.86 17.43 30.94 16.14 30.94 14.14L30.94 6.65 32.88 6.65 33.05 6.62 33.05 14.5C33.05 16.72 32.8 18.36 32.28 19.48 31.76 20.6 31 21.48 29.96 22.11 28.92 22.73 27.63 23.06 26.07 23.06 24.51 23.06 23.2 22.73 22.16 22.11 21.12 21.48 20.33 20.6 19.83 19.48 19.32 18.36 19.07 16.66 19.07 14.39L19.07 6.68 19.01 6.68 19.01 6.68Z" stroke="#325772" fill="#325772"/><path d="M0 6.68L2.05 6.68 2.05 9.63C2.87 8.51 3.8 7.69 4.87 7.11 5.94 6.57 7.11 6.29 8.4 6.29 10.67 6.29 12.61 7.11 14.23 8.75 15.84 10.4 16.66 12.37 16.66 14.64 16.66 16.99 15.87 18.96 14.25 20.6 12.64 22.24 10.72 23.06 8.45 23.06 7.2 23.06 6.02 22.79 4.95 22.27 3.88 21.75 2.93 20.96 2.05 19.89L2.05 28.51 0 28.51 0 6.68 0 6.68 0 6.68ZM8.23 8.26C6.46 8.26 4.95 8.89 3.75 10.12 2.54 11.35 1.92 12.91 1.92 14.75 1.92 15.95 2.19 17.04 2.74 18 3.28 18.96 4.05 19.73 5.06 20.3 6.07 20.87 7.14 21.15 8.26 21.15 9.36 21.15 10.4 20.87 11.38 20.3 12.37 19.73 13.13 18.93 13.71 17.92 14.28 16.91 14.58 15.81 14.58 14.69 14.58 13.57 14.31 12.48 13.73 11.46 13.16 10.45 12.39 9.66 11.44 9.11 10.45 8.54 9.38 8.26 8.23 8.26L8.23 8.26 8.23 8.26Z" stroke="#325772" fill="#325772"/></g></g></svg>