<svg xmlns="http://www.w3.org/2000/svg" width="73px" height="29px" viewBox="0 0 73 29" version="1.1"><g stroke="none" stroke-width="1" fill="none" fill-rule="evenodd"><g transform="translate(0.000000, -5.000000)"><path d="M0.27173913 12.0768L2.30978261 12.0768 2.30978261 15.0144C3.125 13.8992 4.04891304 13.0832 5.10869565 12.512 6.16847826 11.968 7.33695652 11.696 8.61413043 11.696 10.8695652 11.696 12.798913 12.512 14.4021739 14.144 16.0054348 15.776 16.8206522 17.7344 16.8206522 19.992 16.8206522 22.3312 16.0326087 24.2896 14.4293478 25.9216 12.826087 27.5536 10.923913 28.3696 8.66847826 28.3696 7.41847826 28.3696 6.25 28.0976 5.19021739 27.5808 4.13043478 27.064 3.17934783 26.2752 2.30978261 25.2144L2.30978261 33.7824 0.27173913 33.7824 0.27173913 12.0768 0.27173913 12.0768 0.27173913 12.0768ZM8.45108696 13.6544C6.68478261 13.6544 5.19021739 14.28 3.99456522 15.504 2.79891304 16.728 2.17391304 18.2784 2.17391304 20.1008 2.17391304 21.2976 2.44565217 22.3856 2.98913043 23.3376 3.5326087 24.2896 4.29347826 25.0512 5.29891304 25.6224 6.30434783 26.1936 7.36413043 26.4656 8.47826087 26.4656 9.56521739 26.4656 10.5978261 26.1936 11.576087 25.6224 12.5543478 25.0512 13.3152174 24.2624 13.8858696 23.256 14.4565217 22.2496 14.7554348 21.1616 14.7554348 20.0464 14.7554348 18.9312 14.4836957 17.8432 13.9130435 16.8368 13.3423913 15.8304 12.5815217 15.0416 11.6304348 14.4976 10.6521739 13.9264 9.5923913 13.6544 8.45108696 13.6544L8.45108696 13.6544 8.45108696 13.6544Z" fill="#325772"/><path d="M16.0326087 27.9616L16.0326087 6.7728C16.7119565 6.6368 17.3913043 5.576 18.0706522 5.44L18.0706522 14.824C18.9402174 13.7632 19.8913043 12.9744 20.951087 12.4576 22.0108696 11.9408 23.1793478 11.6688 24.4293478 11.6688 26.6847826 11.6688 28.5869565 12.4848 30.1902174 14.1168 31.7934783 15.7488 32.5815217 17.7072 32.5815217 20.0464 32.5815217 22.3312 31.7663043 24.2896 30.1630435 25.9216 28.5597826 27.5536 26.6304348 28.3696 24.375 28.3696 23.0706522 28.3696 21.9021739 28.0976 20.8423913 27.5536 19.7826087 27.0096 18.8586957 26.1664 18.0434783 25.0512L18.0434783 27.9616 16.0326087 27.9616 16.0326087 27.9616 16.0326087 27.9616ZM24.2119565 26.384C25.3532609 26.384 26.3858696 26.112 27.3641304 25.5408 28.3152174 24.9696 29.076087 24.208 29.6467391 23.2016 30.2173913 22.1952 30.4891304 21.1344 30.4891304 20.0192 30.4891304 18.904 30.2173913 17.816 29.6195652 16.8096 29.048913 15.8032 28.2880435 15.0144 27.3097826 14.4432 26.3315217 13.872 25.298913 13.6 24.2119565 13.6 23.0978261 13.6 22.0380435 13.872 21.0326087 14.4432 20.0271739 15.0144 19.2663043 15.776 18.7228261 16.728 18.1793478 17.68 17.9076087 18.768 17.9076087 19.9648 17.9076087 21.7872 18.5054348 23.3376 19.7282609 24.5616 20.951087 25.7584 22.4456522 26.384 24.2119565 26.384L24.2119565 26.384 24.2119565 26.384Z" fill="#79A2C0"/><path d="M19.6618671 24.3629857C18.4171889 23.0732105 17.7948591 21.5715017 17.7948591 19.8578143 17.7948591 18.1441269 18.4262082 16.6604566 19.6889252 15.406759 20.9516423 14.1530613 22.4713896 13.5262219 24.2482129 13.5262219 26.0250361 13.5262219 27.5402738 14.1530613 28.7939715 15.406759 30.0476691 16.6604566 30.6745085 18.1486365 30.6745085 19.8713433 30.6745085 21.5940501 30.061198 23.0957589 28.8345586 24.3765148 27.6079192 25.6572706 26.1197393 26.297639 24.3699743 26.297639L24.1264515 26.297639C22.3947253 26.297639 20.9065454 25.652761 19.6618671 24.3629857L19.6618671 24.3629857ZM28.1716355 15.9614497C27.0802872 14.8430432 25.7770024 14.2838483 24.2617419 14.2838483 22.7464815 14.2838483 21.4341774 14.8475529 20.3247903 15.9749788 19.2154031 17.1024047 18.6607179 18.4237281 18.6607179 19.9389885 18.6607179 21.454249 19.2154031 22.7665531 20.3247903 23.8759402 21.4341774 24.9853273 22.7509911 25.5400125 24.275271 25.5400125 25.7995508 25.5400125 27.1028356 24.9853273 28.1851645 23.8759402 29.2674934 22.7665531 29.8086497 21.4497393 29.8086497 19.9254595 29.8086497 18.4011796 29.2629838 17.0798563 28.1716355 15.9614497L28.1716355 15.9614497ZM33.2450268 31.4116174L33.2450268 13.8238609 34.1108856 13.8238609 34.1108856 16.8002504C34.5979336 15.8081156 35.3600621 15.0144197 36.3972939 14.4191388 37.4345258 13.8238579 38.5123288 13.5262219 39.6307353 13.5262219 41.416578 13.5262219 42.9363253 14.1530613 44.190023 15.406759 45.4437206 16.6604566 46.07056 18.1621654 46.07056 19.9119304 46.07056 21.6616955 45.4437206 23.1634043 44.190023 24.4171019 42.9363253 25.6707995 41.416578 26.297639 39.6307353 26.297639 38.5484064 26.297639 37.4931516 26.0045126 36.4649391 25.4182511 35.4367267 24.8319896 34.65205 24.0428033 34.1108856 23.0506685L34.1108856 31.4116174 33.2450268 31.4116174ZM35.7208417 23.8759402C36.8302289 24.9853273 38.1470426 25.5400125 39.6713224 25.5400125 41.1956023 25.5400125 42.4988871 24.9853273 43.581216 23.8759402 44.6635449 22.7665531 45.2047012 21.4497393 45.2047012 19.9254595 45.2047012 18.4011796 44.6590353 17.0798563 43.567687 15.9614497 42.4763387 14.8430432 41.1730538 14.2838483 39.6577934 14.2838483 38.1425329 14.2838483 36.8302289 14.8475529 35.7208417 15.9749788 34.6114546 17.1024047 34.0567694 18.4237281 34.0567694 19.9389885 34.0567694 21.454249 34.6114546 22.7665531 35.7208417 23.8759402L35.7208417 23.8759402ZM54.7291478 26.324697L54.485625 26.324697C52.7719376 26.324697 51.2792481 25.6798191 50.0075117 24.3900438 48.7357752 23.1002686 48.0999165 21.5985598 48.0999165 19.8848723 48.0999165 18.1711849 48.7312656 16.6875147 49.9939826 15.433817 51.2566996 14.1801194 52.8170337 13.55328 54.6750317 13.55328 56.5330296 13.55328 58.1294407 14.2928603 59.464313 15.7720431L50.9680737 24.1600501C52.1405967 25.0980685 53.2680057 25.5670706 54.3503346 25.5670706 55.4326635 25.5670706 56.4022353 25.3190406 57.259079 24.8229732 58.1159227 24.3269058 58.8239355 23.6639893 59.3831388 22.8342038L59.3831388 24.2141663C58.1023829 25.6211938 56.5510681 26.324697 54.7291478 26.324697L54.7291478 26.324697ZM50.6298477 15.9749788C49.5204605 17.0843659 48.9657753 18.3605929 48.9657753 19.8036981 48.9657753 21.2468033 49.4437967 22.5095014 50.3998539 23.5918303L58.2737572 15.7720431C57.1553507 14.7979471 55.8791237 14.3109064 54.4450379 14.3109064 53.0109521 14.3109064 51.7392348 14.8655917 50.6298477 15.9749788L50.6298477 15.9749788ZM62.9006901 26L62.0348313 26 62.0348313 13.8238609 62.9006901 13.8238609 62.9006901 16.2861468C63.8206696 14.4461877 65.390023 13.5262219 67.6087972 13.5262219 69.1240577 13.5262219 70.395775 14.0493397 71.4239875 15.095591 72.4521999 16.1418422 72.9662984 17.4135596 72.9662984 18.9107812L72.9662984 26 72.1004397 26 72.1004397 18.9107812C72.1004397 17.666103 71.663005 16.5837903 70.7881224 15.6638108 69.9132399 14.7438312 68.8534754 14.2838483 67.6087972 14.2838483 66.364119 14.2838483 65.2682774 14.7438312 64.3212397 15.6638108 63.3742019 16.5837903 62.9006901 17.666103 62.9006901 18.9107812L62.9006901 26Z" fill="#325772"/></g></g></svg>